<?xml version="1.0" encoding="utf-8"?>
<!-- Generator: Adobe Illustrator 16.0.0, SVG Export Plug-In . SVG Version: 6.00 Build 0)  -->
<!DOCTYPE svg PUBLIC "-//W3C//DTD SVG 1.1//EN" "http://www.w3.org/Graphics/SVG/1.1/DTD/svg11.dtd" [
	<!ENTITY ns_extend "http://ns.adobe.com/Extensibility/1.0/">
	<!ENTITY ns_ai "http://ns.adobe.com/AdobeIllustrator/10.0/">
	<!ENTITY ns_graphs "http://ns.adobe.com/Graphs/1.0/">
	<!ENTITY ns_vars "http://ns.adobe.com/Variables/1.0/">
	<!ENTITY ns_imrep "http://ns.adobe.com/ImageReplacement/1.0/">
	<!ENTITY ns_sfw "http://ns.adobe.com/SaveForWeb/1.0/">
	<!ENTITY ns_custom "http://ns.adobe.com/GenericCustomNamespace/1.0/">
	<!ENTITY ns_adobe_xpath "http://ns.adobe.com/XPath/1.0/">
]>
<svg version="1.1" id="Layer_1" xmlns:x="&ns_extend;" xmlns:i="&ns_ai;" xmlns:graph="&ns_graphs;"
	 xmlns="http://www.w3.org/2000/svg" xmlns:xlink="http://www.w3.org/1999/xlink" x="0px" y="0px" width="710px" height="188px"
	 viewBox="0 0 710 188" enable-background="new 0 0 710 188" xml:space="preserve">
<metadata>
	<sfw  xmlns="&ns_sfw;">
		<slices></slices>
		<sliceSourceBounds  width="691.057" height="158.628" x="336.897" y="309.031" bottomLeftOrigin="true"></sliceSourceBounds>
	</sfw>
</metadata>
<path fill="#00438C" d="M75.439,169.877v-17.753c22.335,0,41.004-15.996,45.151-37.134H75.439V97.237h63.764v8.876
	C139.203,141.273,110.599,169.877,75.439,169.877"/>
<path fill="#F57F29" d="M22.307,51.745L9.897,39.049c17.621-17.223,40.898-26.708,65.541-26.708v17.753
	C55.46,30.094,36.591,37.783,22.307,51.745"/>
<path fill="#F57F29" d="M29.429,106.113H11.675c0-35.159,28.604-63.764,63.763-63.764v17.753
	C50.068,60.103,29.429,80.743,29.429,106.113"/>
<rect x="183.251" y="32.043" fill="#19181C" width="2.557" height="138.736"/>
<polygon fill-rule="evenodd" clip-rule="evenodd" fill="#19181C" points="229.856,170.779 229.856,154.396 233.996,154.396 
	233.996,167.752 239.993,167.752 240.559,170.779 "/>
<path fill-rule="evenodd" clip-rule="evenodd" fill="#19181C" d="M250.548,158.162l-2.453,5.93h4.907L250.548,158.162z
	 M252.836,154.325l7.083,15.996l-4.096,0.626l-1.705-4.121h-7.136l-1.622,3.953h-4.049l7.25-16.454H252.836z"/>
<path fill-rule="evenodd" clip-rule="evenodd" fill="#19181C" d="M272.473,170.779l-0.29-1.646
	c-1.825,1.142-3.625,1.836-5.858,1.836c-3.878,0-6.141-1.614-6.141-5.501v-11.071h4.155v10.621c0,1.98,0.92,2.948,2.985,2.948
	c1.65,0,3.084-0.618,4.471-1.674v-11.896h4.167v16.383H272.473z"/>
<path fill-rule="evenodd" clip-rule="evenodd" fill="#19181C" d="M285.265,157.058h-1.777v5.005h1.699
	c2.158,0,3.355-0.802,3.355-2.499C288.542,157.939,287.416,157.058,285.265,157.058 M289.558,170.947l-4.807-6.411h-1.237v6.243
	h-4.056v-16.383h6.219c4.293,0,6.813,1.718,6.813,4.93c0,2.326-1.352,3.799-3.684,4.503l4.971,6.494L289.558,170.947z"/>
<polygon fill-rule="evenodd" clip-rule="evenodd" fill="#19181C" points="295.369,170.779 295.369,154.396 306.452,154.396 
	306.452,157.214 299.468,157.214 299.468,160.811 304.731,160.811 305.267,163.701 299.468,163.701 299.468,167.952 
	306.723,167.952 306.723,170.779 "/>
<path fill-rule="evenodd" clip-rule="evenodd" fill="#19181C" d="M316.38,158.162l-2.445,5.93h4.899L316.38,158.162z
	 M318.662,154.325l7.09,15.996l-4.103,0.626l-1.695-4.121h-7.141l-1.628,3.953h-4.052l7.26-16.454H318.662z"/>
<polygon fill-rule="evenodd" clip-rule="evenodd" fill="#19181C" points="332.84,157.317 332.84,170.778 328.693,170.778 
	328.693,157.317 322.882,157.317 322.882,154.396 338.417,154.396 338.957,157.317 "/>
<polygon fill-rule="evenodd" clip-rule="evenodd" fill="#19181C" points="340.419,170.779 340.419,154.396 351.5,154.396 
	351.5,157.214 344.516,157.214 344.516,160.811 349.783,160.811 350.314,163.701 344.516,163.701 344.516,167.952 351.769,167.952 
	351.769,170.779 "/>
<rect x="365.096" y="154.629" fill-rule="evenodd" clip-rule="evenodd" fill="#19181C" width="1.263" height="15.944"/>
<polygon fill-rule="evenodd" clip-rule="evenodd" fill="#19181C" points="383.719,170.574 372.505,156.567 372.505,170.574 
	371.295,170.574 371.295,154.63 372.407,154.63 383.282,168.219 383.282,154.63 384.5,154.63 384.5,170.574 "/>
<polygon fill-rule="evenodd" clip-rule="evenodd" fill="#19181C" points="393.839,155.616 393.839,170.573 392.577,170.573 
	392.577,155.616 386.681,155.616 386.681,154.63 399.526,154.63 399.695,155.616 "/>
<polygon fill-rule="evenodd" clip-rule="evenodd" fill="#19181C" points="402.279,170.574 402.279,154.63 411.315,154.63 
	411.315,155.617 403.548,155.617 403.548,161.72 409.762,161.72 409.928,162.7 403.548,162.7 403.548,169.58 411.581,169.58 
	411.581,170.574 "/>
<path fill-rule="evenodd" clip-rule="evenodd" fill="#19181C" d="M419.18,155.617h-3.012v6.528h2.75c2.835,0,4.629-1.14,4.629-3.295
	C423.547,156.783,421.919,155.617,419.18,155.617 M424.962,170.738l-6.241-7.622h-2.553v7.458h-1.266V154.63h4.379
	c3.226,0,5.532,1.675,5.532,4.173c0,2.312-1.962,3.819-4.662,4.203l6.117,7.476L424.962,170.738z"/>
<polygon fill-rule="evenodd" clip-rule="evenodd" fill="#19181C" points="441.27,170.574 430.049,156.567 430.049,170.574 
	428.841,170.574 428.841,154.63 429.957,154.63 440.827,168.219 440.827,154.63 442.035,154.63 442.035,170.574 "/>
<path fill-rule="evenodd" clip-rule="evenodd" fill="#19181C" d="M452.138,156.033l-3.617,8.095h7.236L452.138,156.033z
	 M458.688,170.738l-2.496-5.623h-8.116l-2.421,5.457h-1.313l7.261-16.038h1.136l7.236,15.947L458.688,170.738z"/>
<polygon fill-rule="evenodd" clip-rule="evenodd" fill="#19181C" points="465.626,155.616 465.626,170.573 464.364,170.573 
	464.364,155.616 458.468,155.616 458.468,154.63 471.312,154.63 471.48,155.616 "/>
<rect x="474.716" y="154.629" fill-rule="evenodd" clip-rule="evenodd" fill="#19181C" width="1.263" height="15.944"/>
<path fill-rule="evenodd" clip-rule="evenodd" fill="#19181C" d="M487.536,155.312c-4.053,0-6.724,2.96-6.724,7.285
	c0,4.333,2.718,7.28,6.724,7.28c4.053,0,6.714-2.947,6.714-7.28C494.25,158.271,491.545,155.312,487.536,155.312 M487.508,170.867
	c-4.61,0-7.966-3.401-7.966-8.242c0-4.854,3.355-8.298,8.021-8.298c4.604,0,7.961,3.402,7.961,8.25
	C495.523,167.424,492.167,170.867,487.508,170.867"/>
<polygon fill-rule="evenodd" clip-rule="evenodd" fill="#19181C" points="510.955,170.574 499.742,156.567 499.742,170.574 
	498.521,170.574 498.521,154.63 499.645,154.63 510.519,168.219 510.519,154.63 511.731,154.63 511.731,170.574 "/>
<path fill-rule="evenodd" clip-rule="evenodd" fill="#19181C" d="M522.857,156.033l-3.619,8.095h7.236L522.857,156.033z
	 M529.41,170.738l-2.499-5.623h-8.105l-2.429,5.457h-1.312l7.261-16.038h1.141l7.231,15.947L529.41,170.738z"/>
<polygon fill-rule="evenodd" clip-rule="evenodd" fill="#19181C" points="534.028,170.574 534.028,154.63 535.293,154.63 
	535.293,169.58 542.574,169.58 542.75,170.574 "/>
<path fill-rule="evenodd" clip-rule="evenodd" fill="#19181C" d="M563.91,170.682l-0.374-2.017c-1.799,1.384-3.809,2.202-5.88,2.202
	c-3.64,0-6.049-1.634-6.049-5.363v-10.982h1.276v10.915c0,2.984,1.771,4.425,4.85,4.425c2.164,0,3.958-0.948,5.757-2.373v-12.967
	h1.27v16.16H563.91z"/>
<polygon fill-rule="evenodd" clip-rule="evenodd" fill="#19181C" points="581.754,170.682 570.389,156.486 570.389,170.682 
	569.163,170.682 569.163,154.521 570.293,154.521 581.315,168.294 581.315,154.521 582.548,154.521 582.548,170.682 "/>
<rect x="587.043" y="154.521" fill-rule="evenodd" clip-rule="evenodd" fill="#19181C" width="1.277" height="16.159"/>
<polygon fill-rule="evenodd" clip-rule="evenodd" fill="#19181C" points="598.963,170.762 597.984,170.762 590.734,154.609 
	592.029,154.348 598.522,169.092 604.948,154.521 606.279,154.521 "/>
<polygon fill-rule="evenodd" clip-rule="evenodd" fill="#19181C" points="609.1,170.682 609.1,154.521 618.246,154.521 
	618.246,155.532 610.377,155.532 610.377,161.703 616.674,161.703 616.844,162.711 610.377,162.711 610.377,169.673 618.52,169.673 
	618.52,170.682 "/>
<path fill-rule="evenodd" clip-rule="evenodd" fill="#19181C" d="M625.673,155.532h-3.055v6.607h2.787
	c2.869,0,4.69-1.162,4.69-3.335C630.096,156.702,628.451,155.532,625.673,155.532 M631.532,170.848l-6.326-7.723h-2.588v7.557
	h-1.273v-16.16h4.423c3.27,0,5.606,1.696,5.606,4.236c0,2.329-1.983,3.867-4.721,4.258l6.2,7.569L631.532,170.848z"/>
<path fill-rule="evenodd" clip-rule="evenodd" fill="#19181C" d="M639.464,170.867c-1.865,0-3.593-0.448-4.601-0.954l0.201-1.158
	c1.059,0.59,2.648,1.108,4.523,1.108c2.438,0,4.163-1.346,4.163-3.203c0-1.618-0.962-2.471-3.995-3.749
	c-3.413-1.473-4.735-2.431-4.735-4.679c0-2.225,2.253-3.907,5.033-3.907c1.775,0,2.951,0.376,3.913,0.812l-0.194,1.153
	c-0.916-0.55-2.146-0.959-3.787-0.959c-2.216,0-3.698,1.333-3.698,2.831c0,1.613,1.188,2.509,4.019,3.673
	c3.247,1.356,4.721,2.445,4.721,4.667C645.026,169.107,642.687,170.867,639.464,170.867"/>
<rect x="648.696" y="154.521" fill-rule="evenodd" clip-rule="evenodd" fill="#19181C" width="1.276" height="16.159"/>
<polygon fill-rule="evenodd" clip-rule="evenodd" fill="#19181C" points="659.517,155.532 659.517,170.682 658.23,170.682 
	658.23,155.532 652.258,155.532 652.258,154.521 665.265,154.521 665.44,155.532 "/>
<rect x="668.163" y="154.521" fill-rule="evenodd" clip-rule="evenodd" fill="#19181C" width="1.283" height="16.159"/>
<polygon fill-rule="evenodd" clip-rule="evenodd" fill="#19181C" points="673.897,170.682 673.897,154.521 683.044,154.521 
	683.044,155.532 675.17,155.532 675.17,161.703 681.468,161.703 681.646,162.711 675.17,162.711 675.17,169.673 683.312,169.673 
	683.312,170.682 "/>
<path fill-rule="evenodd" clip-rule="evenodd" fill="#19181C" d="M690.298,170.867c-1.865,0-3.599-0.448-4.599-0.954l0.201-1.158
	c1.053,0.59,2.652,1.108,4.52,1.108c2.438,0,4.159-1.346,4.159-3.203c0-1.618-0.958-2.471-3.98-3.749
	c-3.426-1.473-4.747-2.431-4.747-4.679c0-2.225,2.254-3.907,5.03-3.907c1.78,0,2.96,0.376,3.922,0.812l-0.202,1.153
	c-0.913-0.55-2.14-0.959-3.782-0.959c-2.218,0-3.7,1.333-3.7,2.831c0,1.613,1.184,2.509,4.013,3.673
	c3.25,1.356,4.717,2.445,4.717,4.667C695.849,169.107,693.521,170.867,690.298,170.867"/>
<path fill-rule="evenodd" clip-rule="evenodd" fill="#19181C" d="M698.839,155.779h-0.313v0.705h0.296
	c0.264,0,0.434-0.113,0.434-0.347C699.255,155.899,699.109,155.779,698.839,155.779 M699.473,157.828l-0.722-1.017h-0.226v0.984
	h-0.392v-2.385h0.705c0.5,0,0.838,0.254,0.838,0.696c0,0.342-0.191,0.564-0.479,0.655l0.689,0.97L699.473,157.828z M698.859,154.775
	c0.991,0,1.805,0.684,1.805,1.91c0,1.215-0.807,1.896-1.821,1.896c-0.987,0-1.795-0.682-1.795-1.896
	C697.048,155.459,697.846,154.775,698.859,154.775 M698.854,158.832c-1.252,0-2.1-0.861-2.1-2.146c0-1.29,0.872-2.164,2.105-2.164
	c1.228,0,2.095,0.872,2.095,2.164C700.954,157.96,700.069,158.832,698.854,158.832"/>
<g>
	<path fill="#F57F29" d="M229.744,88.359V32.192h10.902v55.477c0,20.838,11.04,32.568,29.532,32.568
		c17.802,0,29.118-10.765,29.118-31.878V32.192h10.902v55.338c0,28.152-16.146,42.78-40.296,42.78
		C246.028,130.311,229.744,115.683,229.744,88.359z"/>
	<path fill="#F57F29" d="M345.668,32.192h10.212l60.858,77.419V32.192h10.626v96.601h-8.694l-62.376-79.212v79.212h-10.626V32.192z"
		/>
	<path fill="#F57F29" d="M465.319,32.192h10.902v96.601h-10.902V32.192z"/>
</g>
<g>
	<path fill="#00438C" d="M512.105,32.192h73.555v19.32h-52.303v20.562h46.093v19.32h-46.093v37.398h-21.252V32.192z"/>
	<path fill="#00438C" d="M608.021,80.769v-0.276c0-27.462,21.39-49.956,50.646-49.956c17.389,0,27.876,4.692,37.95,13.248
		L683.23,59.931c-7.452-6.21-14.076-9.798-25.254-9.798c-15.456,0-27.738,13.662-27.738,30.084v0.276
		c0,17.665,12.144,30.636,29.256,30.636c7.729,0,14.628-1.932,20.01-5.796v-13.8h-21.39V73.179h41.952v41.952
		c-9.936,8.418-23.598,15.318-41.262,15.318C628.72,130.449,608.021,109.335,608.021,80.769z"/>
</g>
</svg>
